<?xml version="1.0" encoding="UTF-8" standalone="no"?>
<svg width="20px" height="16px" viewBox="0 0 20 16" version="1.1" xmlns="http://www.w3.org/2000/svg" xmlns:xlink="http://www.w3.org/1999/xlink">
    <!-- Generator: Sketch 40.3 (33839) - http://www.bohemiancoding.com/sketch -->
    <title>ic_chat</title>
    <desc>Created with Sketch.</desc>
    <defs></defs>
    <g id="Page-1" stroke="none" stroke-width="1" fill="none" fill-rule="evenodd">
        <g id="ic_chat" fill="#74B61B">
            <path d="M11.7368421,10.72 C12.7894737,10.2933333 13.7368421,9.6 14.4736842,8.69333333 C15.7894737,7.09333333 15.7894737,4.74666667 14.4736842,3.14666667 C13.7368421,2.24 12.7894737,1.54666667 11.7368421,1.12 C9.31578947,0.16 6.57894737,0.16 4.15789474,1.12 C3.10526316,1.54666667 2.15789474,2.24 1.42105263,3.14666667 C0.789473684,3.94666667 0.421052632,4.90666667 0.421052632,5.92 C0.421052632,6.77333333 0.684210526,7.62666667 1.15789474,8.32 C1.68421053,9.12 2.42105263,9.76 3.26315789,10.24 C3.21052632,10.4 3.10526316,10.56 3.05263158,10.72 C3,10.88 2.89473684,10.9866667 2.78947368,11.1466667 C2.68421053,11.2533333 2.63157895,11.36 2.52631579,11.4666667 C2.42105263,11.5733333 2.36842105,11.68 2.26315789,11.7866667 C2.15789474,11.9466667 2.05263158,12 2,12.0533333 L1.94736842,12.1066667 C1.94736842,12.1066667 1.94736842,12.16 1.89473684,12.16 L1.84210526,12.2133333 L1.78947368,12.2666667 L1.78947368,12.48 C1.78947368,12.5866667 1.84210526,12.64 1.89473684,12.6933333 C1.94736842,12.8 2.05263158,12.8 2.10526316,12.8 L2.15789474,12.8 L3.10526316,12.64 C4.15789474,12.3733333 5.21052632,11.8933333 6.10526316,11.2533333 C6.73684211,11.36 7.36842105,11.4133333 8,11.4133333 C9.21052632,11.4666667 10.5263158,11.2 11.7368421,10.72 L11.7368421,10.72 Z M18.8421053,11.0933333 C19.8947368,9.6 19.8421053,7.62666667 18.7894737,6.18666667 C18.2105263,5.38666667 17.4736842,4.74666667 16.6315789,4.26666667 C16.7894737,4.8 16.8947368,5.33333333 16.8947368,5.92 C16.8947368,6.88 16.6315789,7.84 16.1578947,8.64 C15.6315789,9.54666667 14.9473684,10.3466667 14.1052632,10.9333333 C13.2631579,11.5733333 12.2631579,12 11.2631579,12.32 C10.2105263,12.64 9.05263158,12.8 7.94736842,12.8 C7.73684211,12.8 7.42105263,12.8 7,12.7466667 C8.52631579,13.7066667 10.2631579,14.1866667 12.0526316,14.1866667 C12.6842105,14.1866667 13.3157895,14.1333333 13.9473684,14.0266667 C14.8421053,14.6666667 15.8421053,15.1466667 16.9473684,15.4133333 C17.2631579,15.4666667 17.5789474,15.52 17.8421053,15.5733333 C17.9473684,15.5733333 18,15.5733333 18.0526316,15.52 C18.1052632,15.4666667 18.1578947,15.36 18.2105263,15.3066667 L18.2105263,15.1466667 L18.1578947,15.0933333 C18.1578947,15.0933333 18.1578947,15.04 18.1052632,15.04 L18.0526316,14.9866667 L18,14.9333333 L17.9473684,14.88 L17.6842105,14.6133333 C17.5789474,14.5066667 17.4736842,14.4 17.4210526,14.2933333 C17.3684211,14.24 17.2631579,14.1333333 17.1578947,13.9733333 C17.0526316,13.8666667 16.9473684,13.7066667 16.8947368,13.5466667 C16.7894737,13.3866667 16.7368421,13.2266667 16.6842105,13.0666667 C17.5789474,12.5333333 18.3157895,11.8933333 18.8421053,11.0933333 L18.8421053,11.0933333 Z" id="Shape"></path>
        </g>
    </g>
</svg>