<?xml version="1.0" encoding="UTF-8" standalone="no"?>
<svg width="13px" height="20px" viewBox="0 0 13 20" version="1.1" xmlns="http://www.w3.org/2000/svg" xmlns:xlink="http://www.w3.org/1999/xlink">
    <!-- Generator: Sketch 40.3 (33839) - http://www.bohemiancoding.com/sketch -->
    <title>ic_phone</title>
    <desc>Created with Sketch.</desc>
    <defs></defs>
    <g id="Page-1" stroke="none" stroke-width="1" fill="none" fill-rule="evenodd">
        <g id="sprite" transform="translate(-215.000000, -57.000000)" fill="#74B61B">
            <g id="ic_phone" transform="translate(215.000000, 57.000000)">
                <path d="M4.35217391,19.7777778 C3.78695652,19.8333333 3.22173913,19.8333333 2.65652174,19.7777778 C1.35652174,19.6666667 0.452173913,18.5 0.565217391,17.2777778 L0.565217391,2.72222222 C0.565217391,1.27777778 1.80869565,0.166666667 3.22173913,0.166666667 L10.0043478,0.166666667 C10.0043478,0.166666667 13,0.0555555556 13,2.72222222 L13,16.5 C13,17 12.9434783,17.5 12.8304348,18 C12.4347826,19.1666667 11.3043478,19.8888889 10.0608696,19.7777778 L4.35217391,19.7777778 L4.35217391,19.7777778 Z M6.72608696,18.6666667 C7.06521739,18.6111111 7.34782609,18.3333333 7.34782609,17.9444444 C7.29130435,17.6111111 7.00869565,17.3333333 6.61304348,17.3333333 C6.27391304,17.3888889 5.99130435,17.6666667 5.99130435,18 C6.04782609,18.3888889 6.33043478,18.6666667 6.72608696,18.6666667 L6.72608696,18.6666667 Z M7.96956522,1.38888889 L5.53913043,1.38888889 C5.14347826,1.33333333 4.74782609,1.61111111 4.69130435,2 C4.74782609,2.38888889 5.14347826,2.66666667 5.53913043,2.61111111 L7.96956522,2.61111111 C8.36521739,2.66666667 8.76086957,2.38888889 8.8173913,2 C8.76086957,1.61111111 8.42173913,1.33333333 7.96956522,1.38888889 L7.96956522,1.38888889 Z M10.7391304,3.83333333 L2.82608696,3.83333333 C2.37391304,3.83333333 1.97826087,4.16666667 1.97826087,4.61111111 L1.97826087,15.3333333 C1.97826087,15.7777778 2.37391304,16.1111111 2.82608696,16.1111111 L10.7956522,16.1111111 C11.2478261,16.1111111 11.6434783,15.7777778 11.6434783,15.3333333 L11.6434783,4.61111111 C11.5869565,4.16666667 11.2478261,3.83333333 10.7391304,3.83333333 L10.7391304,3.83333333 Z" id="Shape"></path>
            </g>
        </g>
    </g>
</svg>